<svg width="524.259" height="88.054" viewBox="0 0 524.259 88.054" xmlns="http://www.w3.org/2000/svg"><g id="svgGroup" stroke-linecap="round" fill-rule="evenodd" font-size="9pt" stroke="#000" stroke-width="0.25mm" fill="#000" style="stroke:#000;stroke-width:0.25mm;fill:#000"><path d="M 437.5 82.878 L 437.5 83.659 A 2.983 2.983 0 0 1 437.378 83.827 Q 437.158 84.111 436.719 84.587 A 590.824 590.824 0 0 1 435.812 85.566 A 662.293 662.293 0 0 1 435.498 85.905 Q 434.863 86.589 434.18 87.126 Q 433.55 87.62 433.252 87.825 A 4.329 4.329 0 0 1 433.203 87.858 Q 433.124 87.938 432.916 87.952 A 1.449 1.449 0 0 1 432.813 87.956 A 1.845 1.845 0 0 1 432.236 88.054 A 1.776 1.776 0 0 1 432.227 88.054 A 1.009 1.009 0 0 1 432.081 88.042 Q 431.931 88.02 431.738 87.956 Q 431.548 87.892 431.398 87.87 A 1.013 1.013 0 0 0 431.25 87.858 A 360.953 360.953 0 0 0 430.542 82.341 A 308.497 308.497 0 0 0 429.785 77.116 A 392.502 392.502 0 0 1 428.369 67.057 A 250.12 250.12 0 0 1 427.295 56.999 A 117.535 117.535 0 0 1 426.919 50.39 A 144.736 144.736 0 0 1 426.856 46.061 A 87.715 87.715 0 0 1 426.859 45.381 Q 426.868 44.218 426.904 42.204 A 288.769 288.769 0 0 0 426.941 39.445 A 337.189 337.189 0 0 0 426.953 36.54 A 332.937 332.937 0 0 1 426.965 33.647 A 277.404 277.404 0 0 1 427.002 30.925 A 554.293 554.293 0 0 0 427.023 29.704 Q 427.048 28.197 427.051 27.393 A 55.846 55.846 0 0 0 427.051 27.214 A 7.536 7.536 0 0 1 427.118 26.826 Q 427.246 26.176 427.539 25.114 A 27.89 27.89 0 0 1 428.467 22.331 A 7.84 7.84 0 0 1 429.692 20.217 A 7.368 7.368 0 0 1 429.932 19.938 A 3.082 3.082 0 0 1 431.041 19.138 A 3.069 3.069 0 0 1 432.227 18.913 A 11.283 11.283 0 0 1 438.281 20.671 A 23.829 23.829 0 0 1 441.575 23.154 A 30.381 30.381 0 0 1 443.75 25.309 A 54.917 54.917 0 0 1 447.568 29.988 A 62.548 62.548 0 0 1 448.779 31.706 A 2738.215 2738.215 0 0 1 453.516 38.688 A 229.051 229.051 0 0 0 456.976 43.669 A 198.66 198.66 0 0 0 458.106 45.231 A 34.035 34.035 0 0 0 460.036 47.649 Q 461.037 48.786 462.037 49.681 A 18.965 18.965 0 0 0 462.598 50.163 A 7.017 7.017 0 0 0 465.447 47.832 A 9.897 9.897 0 0 0 466.406 46.208 A 28.867 28.867 0 0 0 467.721 42.899 A 38.525 38.525 0 0 0 468.652 39.567 A 155.102 155.102 0 0 0 470.078 32.763 A 170.799 170.799 0 0 0 470.264 31.755 A 46.962 46.962 0 0 1 471.389 26.937 A 39.143 39.143 0 0 1 472.266 24.284 A 18.861 18.861 0 0 1 473.638 21.348 A 14.221 14.221 0 0 1 475.635 18.669 A 6.906 6.906 0 0 1 479.258 16.692 A 10.298 10.298 0 0 1 481.445 16.472 A 10.817 10.817 0 0 1 488.155 18.816 A 14.677 14.677 0 0 1 489.404 19.889 A 30.422 30.422 0 0 1 493.133 24.252 A 40.837 40.837 0 0 1 495.801 28.581 A 62.538 62.538 0 0 1 499.267 36.291 A 75.12 75.12 0 0 1 500.635 40.3 A 177.67 177.67 0 0 1 503.185 49.313 A 153.021 153.021 0 0 1 504.004 52.702 Q 505.28 58.263 505.961 62.803 A 93.842 93.842 0 0 1 506.055 63.444 A 128.38 128.38 0 0 1 506.354 65.666 Q 506.737 68.734 506.738 70.272 A 12.43 12.43 0 0 1 506.738 70.28 Q 506.738 71.159 506.641 72.184 A 5.973 5.973 0 0 1 506.413 73.362 A 5.042 5.042 0 0 1 506.152 74.04 A 2.644 2.644 0 0 1 504.991 75.253 A 3.319 3.319 0 0 1 504.883 75.309 Q 504.114 75.694 502.747 75.368 A 8.004 8.004 0 0 1 502.344 75.261 Q 501.999 75.192 501.582 74.953 A 5.017 5.017 0 0 1 501.221 74.723 A 8.174 8.174 0 0 1 500.584 74.232 Q 500.25 73.948 499.902 73.6 A 15.749 15.749 0 0 1 499.268 72.929 A 11.871 11.871 0 0 1 498.731 72.282 A 3.451 3.451 0 0 1 498.494 71.937 Q 498.257 71.535 498.243 71.2 A 0.996 0.996 0 0 1 498.242 71.159 Q 497.363 66.374 496.289 60.514 A 150.593 150.593 0 0 0 493.604 48.649 Q 491.992 42.643 489.551 36.979 A 39.256 39.256 0 0 0 486.14 30.656 A 32.858 32.858 0 0 0 483.496 27.214 A 10.537 10.537 0 0 0 479.586 30.998 A 13.18 13.18 0 0 0 479.053 31.95 A 37.509 37.509 0 0 0 476.938 37.04 A 43.4 43.4 0 0 0 476.367 38.884 A 138.829 138.829 0 0 0 474.414 46.55 Q 473.535 50.456 472.07 53.63 A 17.812 17.812 0 0 1 470.235 56.765 A 14.444 14.444 0 0 1 468.359 58.854 A 7.574 7.574 0 0 1 464.948 60.615 Q 463.812 60.887 462.483 60.904 A 13.944 13.944 0 0 1 462.305 60.905 A 8.459 8.459 0 0 1 458.472 59.964 A 11.032 11.032 0 0 1 457.178 59.196 A 21.733 21.733 0 0 1 454.46 56.97 A 28.851 28.851 0 0 1 452.344 54.704 A 60.318 60.318 0 0 1 448.98 50.3 A 70.171 70.171 0 0 1 447.803 48.552 Q 445.606 45.182 443.506 41.911 A 175.58 175.58 0 0 0 440.92 37.993 A 147.847 147.847 0 0 0 439.404 35.807 Q 437.692 33.385 435.943 31.82 A 15.67 15.67 0 0 0 435.352 31.315 Q 434.753 33.633 434.356 35.522 A 61.913 61.913 0 0 0 434.131 36.638 A 60.481 60.481 0 0 0 433.546 40.27 A 53.835 53.835 0 0 0 433.447 41.081 A 48.184 48.184 0 0 0 433.154 45.475 A 198.886 198.886 0 0 0 433.118 47.844 A 266.908 266.908 0 0 0 433.106 50.456 A 48.941 48.941 0 0 0 433.789 58.61 A 319.883 319.883 0 0 0 435.254 66.667 A 589.437 589.437 0 0 1 436.768 74.723 A 45.761 45.761 0 0 1 437.5 82.878 Z M 37.891 29.264 A 3.415 3.415 0 0 0 37.518 28.399 A 2.475 2.475 0 0 0 36.377 27.409 A 6.586 6.586 0 0 0 34.262 26.891 A 7.607 7.607 0 0 0 33.936 26.872 A 14.194 14.194 0 0 0 33.41 26.862 A 13.544 13.544 0 0 0 31.348 27.018 Q 30.078 27.214 29.395 27.214 A 176.827 176.827 0 0 1 28.412 27.153 Q 26.889 27.054 24.266 26.868 A 1509.027 1509.027 0 0 1 23.633 26.823 A 10892.831 10892.831 0 0 1 19.373 26.518 A 13515.115 13515.115 0 0 1 14.795 26.188 A 891.388 891.388 0 0 1 10.217 25.847 A 719.428 719.428 0 0 1 5.957 25.505 A 661.242 661.242 0 0 0 4.059 25.349 Q 1.717 25.161 0.473 25.082 A 65.281 65.281 0 0 0 0.195 25.065 A 1.627 1.627 0 0 0 0.192 24.971 Q 0.178 24.743 0.11 24.187 A 47.423 47.423 0 0 0 0.098 24.089 A 27.056 27.056 0 0 1 0.057 23.749 Q 0 23.239 0 23.014 Q 0 21.693 0.228 20.645 A 8.095 8.095 0 0 1 0.244 20.573 Q 0.428 19.766 1.409 19.235 A 5.17 5.17 0 0 1 2.148 18.913 A 343.395 343.395 0 0 0 9.453 18.991 A 329.891 329.891 0 0 0 20.264 18.815 A 656.231 656.231 0 0 0 38.135 17.985 Q 47.07 17.448 56.006 16.96 A 330.164 330.164 0 0 1 74.023 16.472 A 12.384 12.384 0 0 1 73.877 18.45 Q 73.515 20.676 72.266 21.891 A 8.772 8.772 0 0 1 68.476 24.045 A 10.648 10.648 0 0 1 67.92 24.186 Q 65.702 24.689 63.089 24.689 A 28.236 28.236 0 0 1 62.207 24.675 A 65.836 65.836 0 0 0 60.151 24.642 A 58.403 58.403 0 0 0 56.201 24.772 Q 53.32 24.968 51.123 25.895 A 4.778 4.778 0 0 0 48.41 28.749 A 6.451 6.451 0 0 0 48.242 29.264 Q 48.162 29.745 48.082 30.949 A 73.263 73.263 0 0 0 48.047 31.511 A 100.046 100.046 0 0 0 47.961 33.22 A 117.957 117.957 0 0 0 47.9 35.026 A 970.196 970.196 0 0 1 47.852 36.821 A 785.459 785.459 0 0 1 47.803 38.493 A 200.321 200.321 0 0 0 47.781 39.241 Q 47.754 40.275 47.754 40.788 A 43.289 43.289 0 0 0 49.17 51.774 A 202.835 202.835 0 0 0 52.295 62.516 Q 54.004 67.839 55.42 73.161 A 41.797 41.797 0 0 1 56.836 83.952 Q 56.836 87.89 52.516 88.047 A 10.089 10.089 0 0 1 52.148 88.054 A 4.269 4.269 0 0 1 49.514 87.107 Q 48.835 86.589 48.201 85.786 A 12.678 12.678 0 0 1 47.119 84.147 A 31.828 31.828 0 0 1 45.431 80.619 Q 44.704 78.845 44.057 76.776 A 63.246 63.246 0 0 1 43.311 74.186 A 106.343 106.343 0 0 1 41.528 66.212 A 131.035 131.035 0 0 1 40.674 61.003 A 309.34 309.34 0 0 1 39.356 50.639 A 269.483 269.483 0 0 1 39.014 47.331 A 308.297 308.297 0 0 1 38.533 41.905 Q 38.337 39.433 38.211 37.239 A 169.365 169.365 0 0 1 38.135 35.807 Q 37.891 30.827 37.891 29.264 Z M 306.836 15.007 Q 308.008 9.05 311.133 5.583 Q 314.258 2.116 318.311 0.847 Q 322.342 -0.416 326.954 0.205 A 24.259 24.259 0 0 1 327.002 0.212 A 25.621 25.621 0 0 1 335.791 3.093 Q 339.941 5.339 343.066 8.903 A 20.535 20.535 0 0 1 347.461 17.009 Q 348.562 20.947 347.753 25.435 A 24.44 24.44 0 0 1 347.461 26.823 A 22.496 22.496 0 0 1 345.563 31.831 Q 344.086 34.706 341.699 37.663 A 149.813 149.813 0 0 1 345.903 39.25 A 123.178 123.178 0 0 1 348.242 40.202 A 20.697 20.697 0 0 1 351.197 41.716 A 16.287 16.287 0 0 1 353.369 43.327 A 12.913 12.913 0 0 1 356.641 47.819 A 12.564 12.564 0 0 1 357.462 50.469 Q 357.813 52.226 357.813 54.362 A 20.069 20.069 0 0 1 357.399 58.327 A 25.875 25.875 0 0 1 356.641 61.198 Q 355.469 64.811 353.369 68.327 A 45.596 45.596 0 0 1 348.486 75.016 A 40.573 40.573 0 0 1 342.481 80.632 A 32.014 32.014 0 0 1 337.98 83.504 A 27.65 27.65 0 0 1 335.889 84.489 A 18.515 18.515 0 0 1 332.145 85.634 A 15.348 15.348 0 0 1 329.297 85.905 Q 327.148 85.905 325.098 83.171 A 25.66 25.66 0 0 1 323.573 80.873 Q 322.806 79.58 322.053 78.033 A 53.866 53.866 0 0 1 321.094 75.944 A 90.131 90.131 0 0 1 319.225 71.272 Q 318.242 68.614 317.285 65.593 A 198.659 198.659 0 0 1 313.916 53.631 A 215.504 215.504 0 0 1 313.867 53.434 Q 312.305 47.136 311.035 40.934 A 478.433 478.433 0 0 1 309.851 34.965 A 372.347 372.347 0 0 1 308.838 29.46 A 351.16 351.16 0 0 1 308.197 25.704 Q 307.953 24.222 307.747 22.878 A 187.6 187.6 0 0 1 307.373 20.329 A 119.238 119.238 0 0 1 307.151 18.652 Q 306.859 16.311 306.838 15.177 A 9.123 9.123 0 0 1 306.836 15.007 Z M 78.698 51.243 A 40.226 40.226 0 0 0 77.539 60.71 Q 77.539 65.495 78.76 70.329 A 32.199 32.199 0 0 0 78.798 70.48 A 28.755 28.755 0 0 0 82.568 79.118 A 21.307 21.307 0 0 0 89.111 85.563 A 15.615 15.615 0 0 0 93.815 87.524 A 20.138 20.138 0 0 0 98.535 88.054 A 39.861 39.861 0 0 0 103.533 87.748 A 31.582 31.582 0 0 0 114.795 84.196 Q 121.875 80.339 126.66 74.04 A 45.314 45.314 0 0 0 133.887 59.782 A 54.82 54.82 0 0 0 136.328 43.62 A 34.119 34.119 0 0 0 135.059 34.391 A 27.376 27.376 0 0 0 134.787 33.48 A 23.808 23.808 0 0 0 131.152 26.335 A 19.638 19.638 0 0 0 124.561 20.72 A 17.345 17.345 0 0 0 119.885 19.066 A 23.126 23.126 0 0 0 115.234 18.62 A 30.813 30.813 0 0 0 104.981 20.329 A 35.551 35.551 0 0 0 95.947 25.016 Q 91.797 27.995 88.379 32.048 Q 84.961 36.1 82.568 40.788 A 47.591 47.591 0 0 0 78.857 50.602 A 44.815 44.815 0 0 0 78.698 51.243 Z M 191.686 51.243 A 40.226 40.226 0 0 0 190.527 60.71 Q 190.527 65.495 191.748 70.329 A 32.199 32.199 0 0 0 191.787 70.48 A 28.755 28.755 0 0 0 195.557 79.118 A 21.307 21.307 0 0 0 202.1 85.563 A 15.615 15.615 0 0 0 206.804 87.524 A 20.138 20.138 0 0 0 211.523 88.054 A 39.861 39.861 0 0 0 216.521 87.748 A 31.582 31.582 0 0 0 227.783 84.196 Q 234.863 80.339 239.648 74.04 A 45.314 45.314 0 0 0 246.875 59.782 A 54.82 54.82 0 0 0 249.316 43.62 A 34.119 34.119 0 0 0 248.047 34.391 A 27.376 27.376 0 0 0 247.775 33.48 A 23.808 23.808 0 0 0 244.141 26.335 A 19.638 19.638 0 0 0 237.549 20.72 A 17.345 17.345 0 0 0 232.873 19.066 A 23.126 23.126 0 0 0 228.223 18.62 A 30.813 30.813 0 0 0 217.969 20.329 A 35.551 35.551 0 0 0 208.936 25.016 Q 204.785 27.995 201.367 32.048 Q 197.949 36.1 195.557 40.788 A 47.591 47.591 0 0 0 191.846 50.602 A 44.815 44.815 0 0 0 191.686 51.243 Z M 363.268 51.243 A 40.226 40.226 0 0 0 362.109 60.71 Q 362.109 65.495 363.33 70.329 A 32.199 32.199 0 0 0 363.369 70.48 A 28.755 28.755 0 0 0 367.139 79.118 A 21.307 21.307 0 0 0 373.682 85.563 A 15.615 15.615 0 0 0 378.386 87.524 A 20.138 20.138 0 0 0 383.106 88.054 A 39.861 39.861 0 0 0 388.103 87.748 A 31.582 31.582 0 0 0 399.365 84.196 Q 406.445 80.339 411.231 74.04 A 45.314 45.314 0 0 0 418.457 59.782 A 54.82 54.82 0 0 0 420.898 43.62 A 34.119 34.119 0 0 0 419.629 34.391 A 27.376 27.376 0 0 0 419.357 33.48 A 23.808 23.808 0 0 0 415.723 26.335 A 19.638 19.638 0 0 0 409.131 20.72 A 17.345 17.345 0 0 0 404.455 19.066 A 23.126 23.126 0 0 0 399.805 18.62 A 30.813 30.813 0 0 0 389.551 20.329 A 35.551 35.551 0 0 0 380.518 25.016 Q 376.367 27.995 372.949 32.048 Q 369.531 36.1 367.139 40.788 A 47.591 47.591 0 0 0 363.428 50.602 A 44.815 44.815 0 0 0 363.268 51.243 Z M 142.875 18.557 A 11.537 11.537 0 0 0 142.481 21.647 A 14.09 14.09 0 0 0 142.516 22.583 Q 142.589 23.661 142.81 25.236 A 81.267 81.267 0 0 0 143.066 26.921 A 87.917 87.917 0 0 0 143.371 28.679 Q 143.649 30.198 144.009 31.895 A 163.215 163.215 0 0 0 144.775 35.319 A 1500.791 1500.791 0 0 0 145.96 40.324 A 1936.345 1936.345 0 0 0 147.266 45.768 A 337.322 337.322 0 0 0 150.195 57.048 A 442.454 442.454 0 0 0 150.587 58.445 A 402.337 402.337 0 0 0 153.369 67.888 A 219.555 219.555 0 0 0 153.583 68.576 Q 154.329 70.967 155.054 73.094 A 129.801 129.801 0 0 0 156.494 77.116 A 123.146 123.146 0 0 0 156.527 77.203 Q 158.021 81.146 159.229 83.513 A 15.766 15.766 0 0 0 159.514 84.048 Q 160.227 85.321 160.814 85.721 A 0.921 0.921 0 0 0 161.328 85.905 A 14.436 14.436 0 0 0 169.58 83.366 Q 173.34 80.827 176.367 76.677 A 44.949 44.949 0 0 0 178.199 73.96 A 52.454 52.454 0 0 0 181.689 67.302 A 87.496 87.496 0 0 0 185.547 56.755 A 89.189 89.189 0 0 0 186.279 54.112 A 78.252 78.252 0 0 0 187.891 46.403 A 84.059 84.059 0 0 0 188.154 44.582 Q 188.672 40.685 188.672 37.663 Q 188.672 32.097 187.5 26.725 Q 186.328 21.354 183.643 17.253 Q 180.957 13.151 176.611 10.661 A 16.116 16.116 0 0 0 175.872 10.262 Q 173.569 9.098 170.745 8.582 A 26.85 26.85 0 0 0 165.918 8.171 Q 162.598 8.171 158.496 8.708 A 32.523 32.523 0 0 0 157.732 8.817 A 28.934 28.934 0 0 0 150.83 10.759 A 19.368 19.368 0 0 0 149.745 11.259 A 16.39 16.39 0 0 0 144.873 14.909 A 8.877 8.877 0 0 0 142.875 18.557 Z M 85.84 62.858 A 17.826 17.826 0 0 0 86.183 66.269 A 22.438 22.438 0 0 0 86.719 68.425 A 21.26 21.26 0 0 0 89.063 73.643 A 20.043 20.043 0 0 0 89.16 73.796 Q 90.723 76.237 93.115 77.897 A 9.281 9.281 0 0 0 98.535 79.557 A 24.829 24.829 0 0 0 107.33 78.021 A 23.314 23.314 0 0 0 110.449 76.579 Q 115.82 73.6 119.727 68.864 Q 123.633 64.128 125.781 58.268 A 34.681 34.681 0 0 0 127.778 49.715 A 31.246 31.246 0 0 0 127.93 46.647 A 122.619 122.619 0 0 0 127.758 40.25 A 133.917 133.917 0 0 0 127.734 39.811 Q 127.539 36.296 126.465 33.415 Q 125.391 30.534 123.096 28.727 A 7.549 7.549 0 0 0 120.704 27.492 Q 118.921 26.921 116.504 26.921 A 48.802 48.802 0 0 0 115.762 26.927 Q 114.938 26.939 113.867 26.978 A 156.79 156.79 0 0 0 112.842 27.018 Q 110.547 27.116 108.301 27.556 Q 106.055 27.995 104.346 28.874 A 4.111 4.111 0 0 0 103.52 29.422 A 2.416 2.416 0 0 0 102.637 31.315 A 0.444 0.444 0 0 0 102.653 31.422 Q 102.712 31.649 102.979 32.145 A 57.979 57.979 0 0 0 103.519 33.125 A 66.075 66.075 0 0 0 103.711 33.464 A 18.349 18.349 0 0 1 104.161 34.299 A 15.344 15.344 0 0 1 104.395 34.782 Q 104.633 35.298 104.677 35.523 A 0.469 0.469 0 0 1 104.688 35.612 Q 104.688 35.796 103.996 36.541 A 17.934 17.934 0 0 1 103.906 36.638 A 9.344 9.344 0 0 1 103.534 37.013 Q 103.166 37.362 102.878 37.539 A 1.6 1.6 0 0 1 102.637 37.663 A 42.052 42.052 0 0 0 98.935 38.799 Q 97.092 39.465 95.554 40.252 A 22.557 22.557 0 0 0 94.482 40.837 A 15.009 15.009 0 0 0 90.137 44.585 A 14.363 14.363 0 0 0 89.307 45.768 A 18.378 18.378 0 0 0 87.444 49.769 A 24.269 24.269 0 0 0 86.621 52.995 Q 85.95 56.604 85.855 61.294 A 77.736 77.736 0 0 0 85.84 62.858 Z M 198.828 62.858 A 17.826 17.826 0 0 0 199.171 66.269 A 22.438 22.438 0 0 0 199.707 68.425 A 21.26 21.26 0 0 0 202.051 73.643 A 20.043 20.043 0 0 0 202.148 73.796 Q 203.711 76.237 206.104 77.897 A 9.281 9.281 0 0 0 211.523 79.557 A 24.829 24.829 0 0 0 220.318 78.021 A 23.314 23.314 0 0 0 223.438 76.579 Q 228.809 73.6 232.715 68.864 Q 236.621 64.128 238.77 58.268 A 34.681 34.681 0 0 0 240.766 49.715 A 31.246 31.246 0 0 0 240.918 46.647 A 122.619 122.619 0 0 0 240.746 40.25 A 133.917 133.917 0 0 0 240.723 39.811 Q 240.527 36.296 239.453 33.415 Q 238.379 30.534 236.084 28.727 A 7.549 7.549 0 0 0 233.693 27.492 Q 231.909 26.921 229.492 26.921 A 48.802 48.802 0 0 0 228.751 26.927 Q 227.926 26.939 226.855 26.978 A 156.79 156.79 0 0 0 225.83 27.018 Q 223.535 27.116 221.289 27.556 Q 219.043 27.995 217.334 28.874 A 4.111 4.111 0 0 0 216.508 29.422 A 2.416 2.416 0 0 0 215.625 31.315 A 0.444 0.444 0 0 0 215.641 31.422 Q 215.7 31.649 215.967 32.145 A 57.979 57.979 0 0 0 216.507 33.125 A 66.075 66.075 0 0 0 216.699 33.464 A 18.349 18.349 0 0 1 217.149 34.299 A 15.344 15.344 0 0 1 217.383 34.782 Q 217.621 35.298 217.666 35.523 A 0.469 0.469 0 0 1 217.676 35.612 Q 217.676 35.796 216.985 36.541 A 17.934 17.934 0 0 1 216.895 36.638 A 9.344 9.344 0 0 1 216.522 37.013 Q 216.155 37.362 215.866 37.539 A 1.6 1.6 0 0 1 215.625 37.663 A 42.052 42.052 0 0 0 211.924 38.799 Q 210.08 39.465 208.543 40.252 A 22.557 22.557 0 0 0 207.471 40.837 A 15.009 15.009 0 0 0 203.125 44.585 A 14.363 14.363 0 0 0 202.295 45.768 A 18.378 18.378 0 0 0 200.432 49.769 A 24.269 24.269 0 0 0 199.609 52.995 Q 198.938 56.604 198.844 61.294 A 77.736 77.736 0 0 0 198.828 62.858 Z M 370.41 62.858 A 17.826 17.826 0 0 0 370.754 66.269 A 22.438 22.438 0 0 0 371.289 68.425 A 21.26 21.26 0 0 0 373.634 73.643 A 20.043 20.043 0 0 0 373.731 73.796 Q 375.293 76.237 377.686 77.897 A 9.281 9.281 0 0 0 383.106 79.557 A 24.829 24.829 0 0 0 391.9 78.021 A 23.314 23.314 0 0 0 395.02 76.579 Q 400.391 73.6 404.297 68.864 Q 408.203 64.128 410.352 58.268 A 34.681 34.681 0 0 0 412.348 49.715 A 31.246 31.246 0 0 0 412.5 46.647 A 122.619 122.619 0 0 0 412.328 40.25 A 133.917 133.917 0 0 0 412.305 39.811 Q 412.109 36.296 411.035 33.415 Q 409.961 30.534 407.666 28.727 A 7.549 7.549 0 0 0 405.275 27.492 Q 403.491 26.921 401.074 26.921 A 48.802 48.802 0 0 0 400.333 26.927 Q 399.508 26.939 398.437 26.978 A 156.79 156.79 0 0 0 397.412 27.018 Q 395.117 27.116 392.871 27.556 Q 390.625 27.995 388.916 28.874 A 4.111 4.111 0 0 0 388.09 29.422 A 2.416 2.416 0 0 0 387.207 31.315 A 0.444 0.444 0 0 0 387.223 31.422 Q 387.282 31.649 387.549 32.145 A 57.979 57.979 0 0 0 388.089 33.125 A 66.075 66.075 0 0 0 388.281 33.464 A 18.349 18.349 0 0 1 388.731 34.299 A 15.344 15.344 0 0 1 388.965 34.782 Q 389.203 35.298 389.248 35.523 A 0.469 0.469 0 0 1 389.258 35.612 Q 389.258 35.796 388.567 36.541 A 17.934 17.934 0 0 1 388.477 36.638 A 9.344 9.344 0 0 1 388.104 37.013 Q 387.737 37.362 387.448 37.539 A 1.6 1.6 0 0 1 387.207 37.663 A 42.052 42.052 0 0 0 383.506 38.799 Q 381.662 39.465 380.125 40.252 A 22.557 22.557 0 0 0 379.053 40.837 A 15.009 15.009 0 0 0 374.707 44.585 A 14.363 14.363 0 0 0 373.877 45.768 A 18.378 18.378 0 0 0 372.014 49.769 A 24.269 24.269 0 0 0 371.191 52.995 Q 370.52 56.604 370.426 61.294 A 77.736 77.736 0 0 0 370.41 62.858 Z M 150.586 27.214 A 53.194 53.194 0 0 0 150.67 30.116 Q 150.751 31.597 150.911 33.234 A 90.654 90.654 0 0 0 151.025 34.343 A 78.884 78.884 0 0 0 151.959 40.513 A 89.989 89.989 0 0 0 152.393 42.643 A 87.498 87.498 0 0 0 154.736 51.286 A 64.92 64.92 0 0 0 157.327 57.993 A 58.075 58.075 0 0 0 158.008 59.44 A 42.33 42.33 0 0 0 160.996 64.639 A 37.063 37.063 0 0 0 162.207 66.325 A 20.502 20.502 0 0 0 165.113 69.441 A 17.064 17.064 0 0 0 167.481 71.159 A 370.579 370.579 0 0 0 170.218 67.244 Q 171.456 65.447 172.538 63.824 A 212.372 212.372 0 0 0 173.242 62.761 A 48.222 48.222 0 0 0 176.184 57.658 A 41.708 41.708 0 0 0 177.246 55.339 A 36.35 36.35 0 0 0 179.494 47.691 A 40.148 40.148 0 0 0 179.541 47.429 Q 180.17 43.82 180.259 39.201 A 80.307 80.307 0 0 0 180.273 37.663 A 61.389 61.389 0 0 0 179.785 29.85 A 20.985 20.985 0 0 0 178.845 25.724 A 17.417 17.417 0 0 0 177.686 23.063 Q 176.074 20.085 173.145 18.278 Q 170.741 16.796 167.087 16.53 A 22.837 22.837 0 0 0 165.43 16.472 Q 161.523 16.472 157.861 17.692 A 39.278 39.278 0 0 0 150.781 20.866 A 6.316 6.316 0 0 1 150.779 21.022 Q 150.773 21.274 150.749 21.736 A 78.82 78.82 0 0 1 150.732 22.038 A 30.717 30.717 0 0 0 150.696 22.953 A 38.613 38.613 0 0 0 150.684 23.942 A 38.803 38.803 0 0 1 150.658 25.366 A 33.432 33.432 0 0 1 150.635 25.895 A 66.986 66.986 0 0 0 150.613 26.326 Q 150.589 26.858 150.586 27.149 A 7.32 7.32 0 0 0 150.586 27.214 Z M 513.559 13.871 A 10.348 10.348 0 0 0 512.793 14.518 A 1527.614 1527.614 0 0 0 512.793 14.553 Q 512.793 23.467 512.93 30.247 A 434.61 434.61 0 0 0 513.037 34.538 A 1557.69 1557.69 0 0 0 513.061 35.339 Q 513.232 40.919 513.403 45.158 A 559.63 559.63 0 0 0 513.525 48.014 A 312.63 312.63 0 0 0 513.643 50.401 Q 513.774 52.881 513.919 54.725 A 83.989 83.989 0 0 0 514.063 56.364 A 96.677 96.677 0 0 0 514.202 57.69 Q 514.425 59.679 514.648 60.759 A 14.957 14.957 0 0 0 514.75 61.217 Q 514.992 62.226 515.234 62.468 Q 515.527 62.761 515.82 62.761 Q 516.946 62.761 517.792 62.62 A 6.183 6.183 0 0 0 518.652 62.419 Q 519.181 62.251 519.568 62 A 2.364 2.364 0 0 0 520.215 61.393 Q 520.505 60.988 520.691 60.444 A 5.543 5.543 0 0 0 520.898 59.636 Q 521.094 58.561 521.094 57.097 A 19.093 19.093 0 0 1 521.032 56.825 Q 520.404 53.939 520.264 49.186 A 471.349 471.349 0 0 1 520.142 44.059 A 556.546 556.546 0 0 1 520.068 38.639 A 1137.745 1137.745 0 0 0 519.922 27.751 A 79.014 79.014 0 0 0 519.864 25.828 Q 519.776 23.77 519.582 21.964 A 40.803 40.803 0 0 0 519.092 18.62 Q 518.588 16.002 517.739 14.537 A 4.724 4.724 0 0 0 516.895 13.444 Q 515.65 12.282 513.559 13.871 Z M 317.963 25.02 A 75.108 75.108 0 0 0 317.969 24.089 L 317.969 21.354 A 168.253 168.253 0 0 1 317.981 19.352 A 194.17 194.17 0 0 1 318.018 17.253 A 1942.396 1942.396 0 0 1 318.066 15.153 A 1683.902 1683.902 0 0 1 318.115 13.151 A 363.463 363.463 0 0 0 318.123 12.849 Q 318.153 11.599 318.161 10.879 A 41.53 41.53 0 0 0 318.164 10.417 Q 320.947 9.025 323.352 8.46 A 13.621 13.621 0 0 1 326.465 8.073 A 13.825 13.825 0 0 1 329.024 8.3 A 10.133 10.133 0 0 1 332.617 9.684 A 10.284 10.284 0 0 1 334.446 11.161 A 11.405 11.405 0 0 1 336.572 14.225 A 16.292 16.292 0 0 1 337.276 15.92 A 18.053 18.053 0 0 1 338.232 20.671 A 20.406 20.406 0 0 1 338.281 22.085 Q 338.281 22.707 338.244 23.335 A 23.362 23.362 0 0 1 337.5 27.897 A 22.907 22.907 0 0 1 334.326 34.88 A 19.769 19.769 0 0 1 332.737 36.937 A 22.423 22.423 0 0 1 328.564 40.593 A 19.519 19.519 0 0 1 325.34 42.374 A 23.249 23.249 0 0 1 320.215 43.913 A 11.058 11.058 0 0 1 319.127 41.728 A 14.497 14.497 0 0 1 318.457 39.225 A 38.99 38.99 0 0 1 317.871 33.757 A 75.591 75.591 0 0 1 317.822 31.059 A 69.602 69.602 0 0 1 317.871 28.434 Q 317.944 26.493 317.963 25.02 Z M 324.219 57.292 A 9.469 9.469 0 0 0 324.295 58.434 Q 324.439 59.614 324.856 61.168 A 33.255 33.255 0 0 0 325 61.686 A 41.137 41.137 0 0 0 327.002 67.155 A 40.005 40.005 0 0 0 328.927 70.934 A 34.736 34.736 0 0 0 329.688 72.184 Q 330.665 73.715 331.729 74.572 A 5.392 5.392 0 0 0 332.813 75.261 Q 334.18 76.042 336.035 75.114 A 10.997 10.997 0 0 0 337.727 74.053 Q 338.754 73.279 339.795 72.184 A 33.709 33.709 0 0 0 342.231 69.305 A 40.681 40.681 0 0 0 343.457 67.595 Q 345.215 65.007 346.631 62.468 A 42.096 42.096 0 0 0 347.883 60.051 Q 348.453 58.852 348.874 57.74 A 23.858 23.858 0 0 0 348.877 57.731 A 21.657 21.657 0 0 0 349.24 56.697 Q 349.587 55.615 349.676 54.852 A 4.24 4.24 0 0 0 349.707 54.362 Q 349.707 51.823 349.023 50.212 A 6.328 6.328 0 0 0 347.792 48.305 A 5.911 5.911 0 0 0 347.022 47.624 A 7.64 7.64 0 0 0 344.822 46.506 A 9.399 9.399 0 0 0 343.897 46.257 A 17.144 17.144 0 0 0 341.568 45.926 A 21.544 21.544 0 0 0 339.941 45.866 A 17.277 17.277 0 0 0 336.816 46.164 A 21.857 21.857 0 0 0 334.766 46.647 Q 332.031 47.429 329.736 48.893 A 14.776 14.776 0 0 0 325.83 52.507 A 7.785 7.785 0 0 0 324.219 57.292 Z M 260.748 55.953 A 3.132 3.132 0 0 0 260.742 56.12 A 6.666 6.666 0 0 0 260.856 57.378 A 4.842 4.842 0 0 0 261.621 59.245 Q 262.5 60.514 265.137 60.319 A 105.752 105.752 0 0 1 265.731 60.3 Q 267.603 60.243 270.145 60.228 A 335.247 335.247 0 0 1 272.217 60.222 A 97.196 97.196 0 0 0 272.761 60.22 A 105.973 105.973 0 0 0 281.152 59.831 Q 285.742 59.44 290.137 58.513 A 30.12 30.12 0 0 0 290.68 58.393 Q 292.563 57.959 294.165 57.328 A 17.407 17.407 0 0 0 297.461 55.632 A 12.661 12.661 0 0 0 297.458 55.338 Q 297.412 53.359 296.729 52.995 Q 296.179 52.702 295.053 52.629 A 12.607 12.607 0 0 0 294.238 52.604 Q 292.773 52.311 290.137 52.311 A 163.03 163.03 0 0 0 287.378 52.336 A 210.434 210.434 0 0 0 284.375 52.409 A 111.569 111.569 0 0 0 282.389 52.489 A 131.094 131.094 0 0 0 277.783 52.8 A 838.93 838.93 0 0 1 276.065 52.943 A 751.694 751.694 0 0 1 271.094 53.337 A 453.29 453.29 0 0 0 268.005 53.581 A 345.635 345.635 0 0 0 265.186 53.825 A 96.62 96.62 0 0 1 264.677 53.87 Q 262.349 54.069 260.938 54.069 A 0.302 0.302 0 0 1 260.937 54.079 Q 260.933 54.202 260.84 54.997 Q 260.765 55.632 260.748 55.953 Z M 521.956 79.783 A 4.32 4.32 0 0 0 520.117 79.362 Q 519.547 78.873 518.704 78.962 A 2.964 2.964 0 0 0 518.359 79.02 A 4.744 4.744 0 0 0 517.767 79.196 A 5.147 5.147 0 0 0 516.357 79.997 A 6.738 6.738 0 0 0 514.795 81.755 A 3.825 3.825 0 0 0 514.501 82.328 Q 514.201 83.067 514.307 83.806 A 2.313 2.313 0 0 0 514.493 84.435 Q 514.662 84.809 514.97 85.169 A 4.882 4.882 0 0 0 515.576 85.759 A 3.433 3.433 0 0 0 515.878 85.98 Q 517.026 86.735 519.336 87.077 Q 521.602 86.253 522.757 85.332 A 4.033 4.033 0 0 0 523.535 84.538 A 5.316 5.316 0 0 0 523.803 84.125 Q 524.459 82.999 524.17 82.048 A 3.086 3.086 0 0 0 523.399 80.777 A 4.493 4.493 0 0 0 522.607 80.143 A 5.559 5.559 0 0 0 521.956 79.783 Z" vector-effect="non-scaling-stroke"/></g></svg>